<svg xmlns="http://www.w3.org/2000/svg" xmlns:xlink="http://www.w3.org/1999/xlink" width="136.052" height="134.598" viewBox="0 0 136.052 134.598">
  <defs>
    <linearGradient id="linear-gradient" x1="0.337" y1="-0.135" x2="0.6" y2="0.992" gradientUnits="objectBoundingBox">
      <stop offset="0" stop-color="#fff"/>
      <stop offset="1" stop-color="#b8b8b8"/>
    </linearGradient>
    <linearGradient id="linear-gradient-2" y1="0.5" x2="1" y2="0.5" gradientUnits="objectBoundingBox">
      <stop offset="0" stop-color="#4d4d4d"/>
      <stop offset="1"/>
    </linearGradient>
  </defs>
  <g id="Group_7563" data-name="Group 7563" transform="translate(-147.142 -287)">
    <g id="Group_7560" data-name="Group 7560" transform="translate(-2087.105 1822.986)">
      <path id="Path_7460" data-name="Path 7460" d="M2333.506-1470.312s-34.14-6.188-60.233,12.15-33.438,87.9,12.607,97.159,67.079-9.752,72.688-28.051S2354.623-1460.761,2333.506-1470.312Z" transform="translate(-14.815 -52.522)" fill="url(#linear-gradient)"/>
      <g id="Group_7559" data-name="Group 7559" transform="translate(2234.247 -1535.986)">
        <g id="Group_7554" data-name="Group 7554" transform="translate(0 10.72)">
          <path id="Path_7461" data-name="Path 7461" d="M2336.853-1472.062c-5.439-4.335-12.377-6.644-20.177-6.824l0,0h-.151q-.865-.017-1.744,0h-12.032l4.574.749c-.89.157-1.786.336-2.689.542-9.6,2.194-16.816,8.359-20.876,17.831a39.424,39.424,0,0,0-3.1,13.127,8.066,8.066,0,0,0,1.743,5.291c-1.353,1.151-6.464,3.071-6.464,3.071s8.633.561,12.819,0c4.311-.573,7.943-3.451,8.088-7.83,0-.132.563-13.229,11.4-15.707,7.765-1.774,14.34-.918,18.518,2.412,3.445,2.746,5.192,7.129,5.193,13.027,0,6.872-8.49,13.342-15.981,19.051-7.17,5.464-13.363,10.182-15.03,16.942-2.707,10.978-2.161,23.356-2.137,23.878a8.06,8.06,0,0,0,1.293,4.023c-.7.955-5.363,2.171-5.757,3.682l12.546.009c.126,0,.252,0,.38-.009a8.1,8.1,0,0,0,7.716-8.458,86.491,86.491,0,0,1,.885-15.256,12.292,12.292,0,0,1,4.218-7.432c1.809-1.531,3.981-3.186,5.7-4.5,9.438-7.192,22.363-17.041,22.361-31.934C2348.145-1457.134,2344.134-1466.257,2336.853-1472.062Z" transform="translate(-2268.101 1478.901)" fill="#ad263d"/>
          <path id="Path_7462" data-name="Path 7462" d="M2376.66-930.5a18.418,18.418,0,0,0-8.042.3l.388,20.079a49.543,49.543,0,0,0,8.445.074c.281-.039.563-.07.846-.083a8.1,8.1,0,0,0,7.712-8.089v-3.893a8.1,8.1,0,0,0-7.033-8.028C2378.2-930.245,2377.428-930.358,2376.66-930.5Z" transform="translate(-2343.379 1033.759)" fill="#ad263d"/>
          <g id="Group_7553" data-name="Group 7553">
            <g id="Group_7551" data-name="Group 7551">
              <path id="Path_7463" data-name="Path 7463" d="M2260.485-1378.8a8.094,8.094,0,0,1-8.082-7.714c-.024-.522-.57-12.9,2.137-23.878,1.667-6.76,7.859-11.478,15.03-16.942,7.491-5.708,15.982-12.179,15.981-19.05,0-5.9-1.748-10.281-5.193-13.027-4.177-3.33-10.753-4.187-18.517-2.412-10.84,2.478-11.4,15.575-11.4,15.707a8.1,8.1,0,0,1-8.088,7.829c-.091,0-.181,0-.273,0a8.1,8.1,0,0,1-7.825-8.361,39.41,39.41,0,0,1,3.1-13.128c4.061-9.471,11.28-15.637,20.877-17.831,12.668-2.9,24.11-.929,32.221,5.536,7.281,5.8,11.292,14.927,11.293,25.689,0,14.893-12.923,24.743-22.361,31.934-1.72,1.311-3.892,2.966-5.7,4.5a12.291,12.291,0,0,0-4.218,7.432,86.421,86.421,0,0,0-.885,15.255,8.1,8.1,0,0,1-7.717,8.458C2260.738-1378.8,2260.611-1378.8,2260.485-1378.8Z" transform="translate(-2234.247 1478.912)" fill="#ff6161"/>
            </g>
            <g id="Group_7552" data-name="Group 7552" transform="translate(17.529 103.547)">
              <path id="Path_7464" data-name="Path 7464" d="M2335.671-907.544a8.1,8.1,0,0,1-8.1-8.1v-3.893a8.1,8.1,0,0,1,8.1-8.1,8.1,8.1,0,0,1,8.1,8.1v3.893A8.1,8.1,0,0,1,2335.671-907.544Z" transform="translate(-2327.573 927.632)" fill="#ff6161"/>
            </g>
          </g>
          <path id="Path_7465" data-name="Path 7465" d="M2267.528-1463.286s6.729-11.638,25.206-13.348,25.1,10.148,25.1,10.148-16.216-7.063-29.4-3.559-17.153,11.612-19.3,11.115S2265.56-1460.708,2267.528-1463.286Z" transform="translate(-2260.515 1477.198)" fill="url(#linear-gradient-2)" style="mix-blend-mode: color-dodge;isolation: isolate"/>
          <path id="Path_7466" data-name="Path 7466" d="M2242.123-1361.089s-2.99,7.141-1.765,11.748,5.24,6.453,7.832,5.405S2242.123-1361.089,2242.123-1361.089Z" transform="translate(-2238.971 1383.22)" fill="url(#linear-gradient-2)" style="mix-blend-mode: color-dodge;isolation: isolate"/>
          <path id="Path_7467" data-name="Path 7467" d="M2341.233-1232.063a1.137,1.137,0,0,1-2.2.1,8.426,8.426,0,0,1-.358-2.582c.083-3.144.746-20.884,3.061-24.572,4.881-7.777,26.64-23.146,27.881-25.389s5.543-6.546,4.385-1.168-13.816,17.374-17.043,19.939-9.514,4.136-12.572,18.412C2343.216-1241.885,2341.971-1235.743,2341.233-1232.063Z" transform="translate(-2319.054 1324.076)" fill="url(#linear-gradient-2)" style="mix-blend-mode: color-dodge;isolation: isolate"/>
          <path id="Path_7468" data-name="Path 7468" d="M2336.138-923.293s-3.751,1.1-4.909,4.247-1.434,9.625.855,11.472S2342.288-924.314,2336.138-923.293Z" transform="translate(-2312.303 1027.688)" fill="url(#linear-gradient-2)" style="mix-blend-mode: color-dodge;isolation: isolate"/>
        </g>
        <g id="Group_7558" data-name="Group 7558" transform="translate(36.378)">
          <path id="Path_7469" data-name="Path 7469" d="M2647.814-1446.667c-5.776,1.276.667,25.45,19.119,31.119,15.055,4.625,32.569-10.488,31.966-17.718s-21.989,9.224-29.779,7.114c-6.5-1.76-11.735-15.453-15.887-19.721C2651.815-1447.329,2649.1-1446.95,2647.814-1446.667Z" transform="translate(-2604.846 1463.659)" fill="#fff"/>
          <path id="Path_7470" data-name="Path 7470" d="M2671.992-1445.872a4.305,4.305,0,0,0-3.13-1.059,10.489,10.489,0,0,1,2.369,4.326c2.313,7.147.447,8.387,6.6,15.2s9.664,12.156,16.71,7.149,7.036-8.417,12.787-9.571c5.645-1.132,8.589-1.609,10.232-3.963-1.637-5.843-22.1,9.691-29.685,7.637C2681.38-1427.911,2676.145-1441.6,2671.992-1445.872Z" transform="translate(-2623.606 1463.658)" fill="#ffe6e6"/>
          <path id="Path_7471" data-name="Path 7471" d="M2581.342-886.313s-.6,3.393-.562,4.092,3.36.56,3.5,2.133-4.826,2.168-7.275.769-2.623-6.05-2.8-8.149,2.273-1.958,4.442-2.238S2582.147-887.537,2581.342-886.313Z" transform="translate(-2546.724 1011.114)" fill="#311e69"/>
          <path id="Path_7472" data-name="Path 7472" d="M2613.224-1171.072c3.062-.3,4.052-2.548,4.255-4.8-2.005-10.4-14.047-24.306-14.047-24.306s-16.734-3.839-16.053,2.487c1.292,12,14.954,18.571,16.535,22.768a1.406,1.406,0,0,1,.083.5A11.459,11.459,0,0,0,2613.224-1171.072Z" transform="translate(-2557.412 1264.187)" fill="#311e69"/>
          <g id="Group_7555" data-name="Group 7555" transform="translate(17.48 42.656)">
            <path id="Path_7473" data-name="Path 7473" d="M2693.876-858.322a3.614,3.614,0,0,0,.137-3.67l4.98-.442a8.449,8.449,0,0,0,1.469,3.023c1.8,1.848,6.029,3.25,6.129,3.915.166,1.107-10.5,1.62-12.437.59C2693.141-855.445,2692.986-856.937,2693.876-858.322Z" transform="translate(-2660.928 946.291)" fill="#311e69"/>
            <path id="Path_7474" data-name="Path 7474" d="M2522.5-1308.639c-.007.29-.025.582-.056.877-.267,2.559-.694,11.178-1.253,14.7-1.368,8.6,4.518,25.385,4.912,26.578,3.843,11.657,17.942,35.418,22.943,44.441,1.115,2.011,11.727.176,11.437-1.669-2.308-14.65-23.971-62.119-23.561-63.778l-1.058-21.4A55.425,55.425,0,0,1,2522.5-1308.639Z" transform="translate(-2520.985 1308.887)" fill="#614cd4"/>
            <path id="Path_7475" data-name="Path 7475" d="M2579.768-1242.438l-.523-10.6c-3.144-.284-5.5-.379-5.5-.379a125.283,125.283,0,0,0,4.169,21.009c2.966,9.4,2.589,17.9,9.492,28.5s9.106,16.865,10.261,20.866c.478,1.658,1.191,4.1,1.862,6.4,2.172-.488,3.924-1.25,3.8-2.015C2601.021-1193.31,2579.359-1240.778,2579.768-1242.438Z" transform="translate(-2563.833 1263.834)" fill="#311e69"/>
          </g>
          <path id="Path_7476" data-name="Path 7476" d="M2501.512-1432.341c-.452-30.5,5.612-38.319,7.854-42.882,2.9-5.893,5.982-11.6,20.647-6.054,4.585,1.734,11.642,6.366,10.518,11.138-.695,2.949-5.134,25-5.134,25s-1.176,11.753-.805,14.181c.845,5.514-8.225,7.119-15.311,4.811-2.726-.888-7.253-6.944-9.933-7.187C2505.042-1433.729,2501.522-1431.659,2501.512-1432.341Z" transform="translate(-2487.67 1493.385)" fill="#fff"/>
          <path id="Path_7477" data-name="Path 7477" d="M2623.567-1470.087a30.144,30.144,0,0,1,.669,3.031c.026.6.052,1.653,1.128,1.364a18.479,18.479,0,0,1,2.6-.734c.525,0,1.895.875,2.413.853s1.031-.491.279-2.521-.254-.351-1.985-.3-3.436-.315-3.593-.735S2623.567-1470.087,2623.567-1470.087Z" transform="translate(-2586.819 1482.465)" fill="#311e69"/>
          <path id="Path_7478" data-name="Path 7478" d="M2622.046-1457.241c-.175-1.154-3.138-1.3-3.194-.554,0,0,.187,1.6.921,1.813l.038.009c-.96,3.644-4.9,18.717-5.127,21.71-.262,3.41,1,6.086,1.889,5.98s2.2-3.879,2.279-5.585c.074-1.558,1.765-19.094,2.058-22.128C2621.558-1456.147,2622.153-1456.537,2622.046-1457.241Z" transform="translate(-2579.577 1472.855)" fill="#1e1240"/>
          <g id="Group_7557" data-name="Group 7557" transform="translate(37.131)">
            <g id="Group_7556" data-name="Group 7556">
              <path id="Path_7479" data-name="Path 7479" d="M2639.631-1528.925l0,0c-.236-.513.145-2.139.9-3.553a1.4,1.4,0,0,1,1.947-.755s-.244-1.078.28-1.576,1.621.448,1.621.448-.063-1.6,1.37-1.624a2.725,2.725,0,0,1,2.455,2.074c1.017,4.232-1.845,4.979-1.845,4.979-1.018,2.056-6.792,1.285-6.792,1.285A3.724,3.724,0,0,1,2639.631-1528.925Z" transform="translate(-2636.923 1535.986)" fill="#1e1240"/>
              <path id="Path_7480" data-name="Path 7480" d="M2629.525-1501.329l-3.9,5.6c-.261.872,3.362,3.754,5.063,3.047.5-.207,1.007-.171.89-1.19l-.832-5.6Z" transform="translate(-2625.609 1507.839)" fill="#ff6161"/>
              <path id="Path_7481" data-name="Path 7481" d="M2644.529-1514.518l-2.332,2.989a2.313,2.313,0,0,0,.6,3.169,6.39,6.39,0,0,0,2.622,1.065c1.011.232,1.843-.519,2.3-1.788a12.607,12.607,0,0,0,.664-4.238C2648.366-1515.383,2646.191-1516.355,2644.529-1514.518Z" transform="translate(-2638.77 1519.34)" fill="#ff6161"/>
              <path id="Path_7482" data-name="Path 7482" d="M2642.2-1509.7l2.332-2.989a3.444,3.444,0,0,1,.628-.55,7.808,7.808,0,0,0-.734,2.439c.245.805.418.209,1.568.585a7.372,7.372,0,0,1,2.15,1.406,10.471,10.471,0,0,1-.419,1.554c-.458,1.27-1.29,2.02-2.3,1.789a6.393,6.393,0,0,1-2.622-1.065A2.313,2.313,0,0,1,2642.2-1509.7Z" transform="translate(-2638.77 1517.513)" fill="#1e1240"/>
              <path id="Path_7483" data-name="Path 7483" d="M2664.487-1489.9a6.228,6.228,0,0,0-1.835-.929S2664.321-1491.02,2664.487-1489.9Z" transform="translate(-2655.695 1499.323)" fill="#fff"/>
              <path id="Path_7484" data-name="Path 7484" d="M2647.334-1510.121a3.294,3.294,0,0,1,.177-.679c.151-.42.278-1.08-.456-1-1.067.12-1.815,2.157-.838,2.7C2646.943-1508.693,2647.256-1509.535,2647.334-1510.121Z" transform="translate(-2641.978 1516.347)" fill="#ff6161"/>
            </g>
          </g>
          <path id="Path_7485" data-name="Path 7485" d="M2627.217-1479.2s1.606-1.626,2.1-1.108,1.375,4.582.327,4.3a8.216,8.216,0,0,1-2.2-1.122s-3.4.9-3.4.147-1.494-3.162-1.206-4.064,1.206-1.665,1.769-1.516C2625.644-1482.3,2627.217-1479.2,2627.217-1479.2Z" transform="translate(-2586.205 1492.619)" fill="#fff"/>
          <path id="Path_7486" data-name="Path 7486" d="M2533.028-1441.692l-12.427,5.536a44.013,44.013,0,0,0-2.092,5.7c-.239.813,4.532-1.739,8.119-4.664A42.459,42.459,0,0,0,2533.028-1441.692Z" transform="translate(-2501.487 1459.403)" fill="#311e69"/>
          <path id="Path_7487" data-name="Path 7487" d="M2460.355-1479.662c-1.172-5.8-25.458.208-31.459,18.554-4.9,14.969,9.9,32.753,17.137,32.281s-8.825-22.152-6.575-29.9c1.877-6.467,15.663-11.454,20.005-15.528C2460.945-1475.649,2460.615-1478.375,2460.355-1479.662Z" transform="translate(-2427.922 1491.97)" fill="#fff"/>
          <path id="Path_7488" data-name="Path 7488" d="M2614.27-1079.393c-.425-2.234-4.237-6.466-13.482,1.45-.008,4.609-14.541,23.51-17.039,28.862-1.489,3.189,2.2,6.226,5.037,7.38s24.552-23.418,25.706-33.8A13.064,13.064,0,0,0,2614.27-1079.393Z" transform="translate(-2554.203 1167.712)" fill="#614cd4"/>
          <path id="Path_7489" data-name="Path 7489" d="M2626.6-1078.5a4.009,4.009,0,0,0-2.829-2.943c.438,1.789,1.155,5.765-.255,8.508-1.87,3.637-3.269,2.641-4.528,5.972a60.1,60.1,0,0,1-6.365,11.3c-2.308,3.287-9.023,8.394-10.422,9.932-1.194,1.314-3.152,2.576-3.613,3.483a11.815,11.815,0,0,0,2.528,1.434c2.833,1.154,24.552-23.418,25.706-33.8A13.064,13.064,0,0,0,2626.6-1078.5Z" transform="translate(-2566.529 1166.824)" fill="#311e69"/>
          <path id="Path_7490" data-name="Path 7490" d="M2641.637-1467.816c.708,3.573,1.834,10.3,1.341,14.839-.7,6.435-3.352,15.668-4.4,24.412-.894,7.427-2.856,12.028-.656,16.075,4.083-.485,7.17-2.387,6.661-5.707-.371-2.428.805-14.181.805-14.181s4.439-22.048,5.134-25C2651.515-1461.606,2646.078-1465.728,2641.637-1467.816Z" transform="translate(-2597.657 1480.62)" fill="#ffe6e6"/>
          <path id="Path_7491" data-name="Path 7491" d="M2475.223-1455.143a4.305,4.305,0,0,0,1.115-3.111,10.488,10.488,0,0,1-4.368,2.291c-7.187,2.184-8.393.3-15.319,6.328s-12.328,9.443-7.449,16.578,8.289,7.187,9.338,12.958c1.03,5.665,1.454,8.616,3.777,10.3,5.872-1.532-9.29-22.273-7.1-29.818C2457.1-1446.081,2470.88-1451.069,2475.223-1455.143Z" transform="translate(-2443.682 1472.854)" fill="#ffe6e6"/>
          <path id="Path_7492" data-name="Path 7492" d="M2517.956-1213.783a34.793,34.793,0,0,0,3.462,1.294c.761.148,1.854.245,1.854.839s-1.05.49-1.714.35a.858.858,0,0,0-.944.35l-3.5,3.148s-3.323-3.078-2.483-4.407S2517.956-1213.783,2517.956-1213.783Z" transform="translate(-2498.236 1274.302)" fill="#ff6161"/>
        </g>
      </g>
      <path id="Path_7493" data-name="Path 7493" d="M2911.434-1397.809c-.66-.66-1.853-1.012-.121-3.677,1.062-1.635-.077-3.554,1.431-2.983.64.242.633,2.093,1.017,2.057s4.13-2.57,5.392-1.448-1.619,3.453-3.444,4.9C2914.539-1398.025,2912.625-1396.619,2911.434-1397.809Z" transform="translate(-549.165 -106.731)" fill="#ff6161"/>
    </g>
  </g>
</svg>
